<svg version="1.0" xmlns="http://www.w3.org/2000/svg"
 width="100pt" height="100pt" 
 preserveAspectRatio="xMidYMid meet">

<g
fill="#fff" stroke="none">
<path d="M5865 17213 c-868 -40 -1653 -239 -2420 -612 -1647 -801 -2847 -2294
-3275 -4073 -115 -482 -164 -905 -164 -1428 0 -331 10 -505 45 -780 216 -1694
1125 -3211 2524 -4212 872 -623 1922 -1012 2995 -1108 130 -12 571 -30 581
-24 3 2 -2 58 -12 126 -191 1287 -23 2587 487 3774 41 95 74 175 74 178 0 4
-21 -9 -47 -30 -186 -142 -482 -262 -765 -310 l-108 -18 0 -268 0 -268 -325 0
-325 0 0 275 0 275 -22 4 c-13 3 -45 8 -73 11 -342 43 -773 267 -977 510 -234
278 -338 688 -338 1326 l0 179 705 0 705 0 0 -282 c0 -328 15 -621 36 -722 26
-126 90 -178 218 -179 138 -1 220 63 264 203 32 104 18 553 -24 760 -42 203
-144 318 -471 532 -709 463 -841 556 -971 686 -157 157 -315 418 -391 648
-100 299 -118 681 -46 989 130 557 546 895 1240 1008 l140 23 3 227 2 227 325
0 325 0 0 -225 c0 -172 3 -226 13 -229 6 -2 75 -16 152 -30 795 -151 1176
-663 1130 -1518 l-7 -138 -702 0 -703 0 -6 263 c-6 285 -22 413 -60 480 -31
56 -92 89 -177 95 -204 14 -301 -161 -272 -495 19 -218 57 -304 180 -409 95
-82 360 -258 727 -484 594 -367 761 -497 894 -700 146 -221 221 -430 263 -725
18 -128 15 -582 -4 -700 -9 -49 -14 -91 -13 -93 1 -1 40 53 86 120 124 182
315 432 468 613 166 195 535 567 731 736 931 804 2023 1343 3213 1585 92 19
176 34 185 34 45 1 45 13 7 121 -682 1905 -2273 3358 -4231 3864 -563 145
-1224 215 -1789 188z"/>
<path d="M11930 16461 l0 -379 33 -7 c119 -24 291 -71 366 -99 382 -146 675
-401 931 -808 57 -91 240 -439 240 -456 0 -4 -194 -6 -431 -4 -237 2 -429 -1
-426 -5 2 -4 289 -475 637 -1046 348 -571 637 -1034 642 -1029 4 4 302 469
662 1033 l655 1024 -464 5 c-289 3 -468 9 -474 15 -5 6 -30 64 -56 130 -128
332 -305 673 -479 920 -371 528 -832 849 -1455 1011 -108 28 -333 74 -362 74
-18 0 -19 -12 -19 -379z"/>
<path d="M12780 12244 c-439 -30 -716 -69 -1080 -150 -553 -125 -1165 -364
-1650 -644 -1157 -669 -2047 -1657 -2579 -2861 -482 -1094 -630 -2340 -420
-3534 218 -1232 809 -2363 1701 -3256 891 -891 2014 -1477 3255 -1698 602
-107 1266 -121 1883 -40 2521 332 4586 2215 5154 4699 107 466 150 863 150
1370 0 411 -26 717 -90 1075 -225 1248 -810 2363 -1709 3261 -802 800 -1797
1355 -2899 1619 -268 64 -596 116 -911 145 -119 11 -700 21 -805 14z m750
-2805 c214 -19 397 -55 640 -125 l130 -38 0 -723 c0 -686 -1 -723 -18 -723
-10 0 -27 7 -39 15 -56 39 -261 132 -378 171 -627 208 -1291 91 -1820 -321
-107 -83 -295 -280 -373 -391 l-64 -89 1346 -3 1346 -2 0 -310 0 -310 -1474 0
c-1396 0 -1475 -1 -1480 -17 -50 -162 -55 -558 -10 -770 l4 -23 1480 0 1480 0
0 -310 0 -310 -1361 0 -1361 0 68 -97 c466 -677 1292 -992 2079 -793 153 38
289 91 432 166 67 35 127 64 132 64 8 0 11 -224 11 -723 l0 -724 -142 -41
c-330 -96 -496 -122 -830 -129 -158 -4 -294 -1 -375 6 -1013 95 -1907 642
-2470 1511 -133 206 -225 391 -318 640 l-43 115 -436 3 -436 2 0 310 0 310
370 0 370 0 -8 48 c-10 66 -9 557 2 670 l8 92 -371 0 -371 0 0 310 0 310 443
0 443 0 38 103 c77 208 219 482 356 687 216 324 563 671 890 890 181 122 431
255 625 332 261 105 612 189 905 217 126 12 449 12 580 0z"/>
<path d="M4673 3198 l-659 -1033 65 -3 c37 -1 248 -6 469 -10 l404 -7 57 -145
c176 -444 364 -781 599 -1075 85 -107 267 -291 366 -371 262 -211 583 -370
946 -467 106 -29 372 -87 396 -87 2 0 3 172 2 382 l-3 382 -122 28 c-175 39
-289 79 -438 153 -170 85 -294 174 -430 310 -191 190 -340 404 -491 705 -46
92 -84 171 -84 175 0 5 194 5 430 2 237 -3 430 -3 430 -1 0 4 -1088 1790
-1250 2052 l-27 43 -660 -1033z"/>
</g>
</svg>
